<svg width="256" height="256" viewBox="0 0 256 256" fill="none" xmlns="http://www.w3.org/2000/svg">
<rect width="256" height="256" rx="64" fill="url(#paint0_linear)"/>
<path d="M72 208V72C72 63.1634 79.1634 56 88 56H168C176.837 56 184 63.1634 184 72V208" stroke="white" stroke-width="16" stroke-linecap="round" stroke-linejoin="round"/>
<path d="M72 128H60C51.1634 128 44 135.163 44 144V208" stroke="white" stroke-width="16" stroke-linecap="round" stroke-linejoin="round"/>
<path d="M184 104H196C204.837 104 212 111.163 212 120V208" stroke="white" stroke-width="16" stroke-linecap="round" stroke-linejoin="round"/>
<path d="M104 96H120" stroke="white" stroke-width="16" stroke-linecap="round"/>
<path d="M136 96H152" stroke="white" stroke-width="16" stroke-linecap="round"/>
<path d="M104 136H120" stroke="white" stroke-width="16" stroke-linecap="round"/>
<path d="M136 136H152" stroke="white" stroke-width="16" stroke-linecap="round"/>
<path d="M104 176H120" stroke="white" stroke-width="16" stroke-linecap="round"/>
<path d="M136 176H152" stroke="white" stroke-width="16" stroke-linecap="round"/>
<defs>
<linearGradient id="paint0_linear" x1="0" y1="0" x2="256" y2="256" gradientUnits="userSpaceOnUse">
<stop stop-color="#4F46E5"/>
<stop offset="1" stop-color="#06B6D4"/>
</linearGradient>
</defs>
</svg>